<svg xmlns="http://www.w3.org/2000/svg" viewBox="0 0 64 64" role="img" aria-label="Shiba">
  <defs>
    <linearGradient id="fur" x1="0%" y1="0%" x2="100%" y2="100%">
      <stop offset="0%" style="stop-color:#f0b070"/>
      <stop offset="100%" style="stop-color:#d8894a"/>
    </linearGradient>
  </defs>
  <circle cx="32" cy="32" r="30" fill="#ffe8dc"/>
  <!-- ears -->
  <path fill="url(#fur)" d="M14 26c-2-8 2-16 8-12l4 10c-4 2-8 4-12 2z"/>
  <path fill="url(#fur)" d="M50 26c2-8-2-16-8-12l-4 10c4 2 8 4 12 2z"/>
  <path fill="#c97a45" d="M18 16l2 8 6-4-4-6zm28 0l-2 8-6-4 4-6z"/>
  <!-- face -->
  <ellipse cx="32" cy="38" rx="20" ry="18" fill="url(#fur)"/>
  <!-- white muzzle / cheeks -->
  <ellipse cx="32" cy="42" rx="12" ry="10" fill="#fff9f4"/>
  <ellipse cx="22" cy="36" rx="6" ry="7" fill="#fff9f4" opacity="0.95"/>
  <ellipse cx="42" cy="36" rx="6" ry="7" fill="#fff9f4" opacity="0.95"/>
  <!-- eyes (shiny) -->
  <ellipse cx="24" cy="34" rx="4" ry="5" fill="#2d1f14"/>
  <ellipse cx="40" cy="34" rx="4" ry="5" fill="#2d1f14"/>
  <circle cx="25" cy="32" r="1.6" fill="#fff"/>
  <circle cx="41" cy="32" r="1.6" fill="#fff"/>
  <!-- nose -->
  <ellipse cx="32" cy="44" rx="3.5" ry="2.8" fill="#1a100c"/>
  <!-- smile -->
  <path fill="none" stroke="#1a100c" stroke-width="1.8" stroke-linecap="round" d="M26 48q6 5 12 0"/>
  <!-- blush -->
  <ellipse cx="18" cy="40" rx="3" ry="2" fill="#ffb4a8" opacity="0.55"/>
  <ellipse cx="46" cy="40" rx="3" ry="2" fill="#ffb4a8" opacity="0.55"/>
</svg>
